<svg width="28" height="28" viewBox="0 0 28 28" fill="none" xmlns="http://www.w3.org/2000/svg">
<path fill-rule="evenodd" clip-rule="evenodd" d="M13.974 2.9999C13.1379 2.9848 12.3071 3.13473 11.529 3.44109C10.751 3.74746 10.041 4.20425 9.43963 4.78532C8.8383 5.3664 8.35747 6.06035 8.02465 6.82747C7.69182 7.59459 7.51354 8.41981 7.5 9.2559V17.9999C7.5 18.5303 7.28929 19.039 6.91421 19.4141C6.53914 19.7892 6.03043 19.9999 5.5 19.9999H3C2.20435 19.9999 1.44129 19.6838 0.87868 19.1212C0.31607 18.5586 0 17.7956 0 16.9999L0 12.9999C0 12.2043 0.31607 11.4412 0.87868 10.8786C1.44129 10.316 2.20435 9.9999 3 9.9999H4.5V9.2199C4.51825 7.99069 4.77846 6.77711 5.26579 5.64848C5.75311 4.51984 6.45799 3.49826 7.34017 2.64208C8.22236 1.78589 9.26456 1.11188 10.4073 0.658532C11.55 0.205184 12.7708 -0.0186202 14 -9.70404e-05C15.2292 -0.0186202 16.45 0.205184 17.5927 0.658532C18.7354 1.11188 19.7776 1.78589 20.6598 2.64208C21.542 3.49826 22.2469 4.51984 22.7342 5.64848C23.2215 6.77711 23.4818 7.99069 23.5 9.2199V9.9999H25C25.7956 9.9999 26.5587 10.316 27.1213 10.8786C27.6839 11.4412 28 12.2043 28 12.9999V16.9999C28 17.7956 27.6839 18.5586 27.1213 19.1212C26.5587 19.6838 25.7956 19.9999 25 19.9999H23.5V20.9999C23.5003 22.3514 23.0029 23.6557 22.1028 24.6639C21.2027 25.6721 19.9629 26.3135 18.62 26.4659C18.3592 26.9315 17.9789 27.3192 17.5184 27.5888C17.0578 27.8584 16.5337 28.0004 16 27.9999H13C12.2044 27.9999 11.4413 27.6838 10.8787 27.1212C10.3161 26.5586 10 25.7956 10 24.9999C10 24.2043 10.3161 23.4412 10.8787 22.8786C11.4413 22.316 12.2044 21.9999 13 21.9999H16C17.084 21.9999 18.034 22.5739 18.56 23.4359C19.1113 23.3092 19.6032 22.9993 19.9556 22.5569C20.308 22.1144 20.4999 21.5655 20.5 20.9999V9.2539C20.4863 8.4135 20.3061 7.58416 19.9699 6.81381C19.6337 6.04346 19.1482 5.34739 18.5413 4.76584C17.9345 4.18429 17.2184 3.72879 16.4344 3.42568C15.6505 3.12257 14.8142 2.97785 13.974 2.9999Z" fill="white"/>
</svg>
