<svg width="35" height="35" viewBox="0 0 35 35" fill="none" xmlns="http://www.w3.org/2000/svg">
<path d="M1.5 11.0781C1.67516 7.54126 2.19895 5.33495 3.76863 3.76863C5.33495 2.19895 7.54126 1.67516 11.0781 1.5M33.5 11.0781C33.3248 7.54126 32.8011 5.33495 31.2314 3.76863C29.6651 2.19895 27.4587 1.67516 23.9219 1.5M23.9219 33.5C27.4587 33.3248 29.6651 32.8011 31.2314 31.2314C32.8011 29.6651 33.3248 27.4587 33.5 23.9219M11.0781 33.5C7.54126 33.3248 5.33495 32.8011 3.76863 31.2314C2.19895 29.6651 1.67516 27.4587 1.5 23.9219M26.7632 25.9211L26.4229 24.4912C26.2846 23.9109 25.9946 23.3778 25.5827 22.9464C25.1708 22.515 24.6517 22.2006 24.0785 22.0356L20.0263 20.8667V18.396C21.5354 17.3771 22.5526 15.4722 22.5526 13.2895C22.5526 10.0339 20.2891 7.39474 17.5 7.39474C14.7093 7.39474 12.4474 10.0339 12.4474 13.2895C12.4474 15.4722 13.4629 17.3771 14.9737 18.396V20.8667L10.9467 22.0457C10.3907 22.2085 9.88605 22.512 9.48156 22.9268C9.07707 23.3416 8.78642 23.8537 8.63768 24.4137L8.23684 25.9211" stroke="white" stroke-width="2.5" stroke-linecap="round" stroke-linejoin="round"/>
</svg>
